<?xml version="1.0" encoding="UTF-8" standalone="no"?><!DOCTYPE svg PUBLIC "-//W3C//DTD SVG 1.1//EN" "http://www.w3.org/Graphics/SVG/1.1/DTD/svg11.dtd"><svg width="100%" height="100%" viewBox="0 0 100 100" version="1.1" xmlns="http://www.w3.org/2000/svg" xmlns:xlink="http://www.w3.org/1999/xlink" xml:space="preserve" xmlns:serif="http://www.serif.com/" style="fill-rule:evenodd;clip-rule:evenodd;stroke-linejoin:round;stroke-miterlimit:1.41421;"><path d="M100,10.053c0,-5.549 -4.504,-10.053 -10.053,-10.053l-79.894,0c-5.549,0 -10.053,4.504 -10.053,10.053l0,79.894c0,5.549 4.504,10.053 10.053,10.053l79.894,0c5.549,0 10.053,-4.504 10.053,-10.053l0,-79.894Z" style="fill:#09f;"/><g><circle cx="22.5" cy="77.5" r="10" style="fill:#fff;"/><path d="M62.5,87.5l-15,0c0,-19.389 -15.61,-35 -35,-35l0,-15c27.429,0 50,22.571 50,50Z" style="fill:#fff;fill-rule:nonzero;"/><path d="M72.5,87.5c0,-32.915 -27.085,-60 -60,-60l0,-15c41.144,0 75,33.857 75,75l-15,0Z" style="fill:#fff;fill-rule:nonzero;"/></g></svg>